<svg xmlns="http://www.w3.org/2000/svg" xmlns:xlink="http://www.w3.org/1999/xlink" viewBox="0,0,256,256" width="512px" height="512px" fill-rule="nonzero"><g fill="#ffffff" fill-rule="nonzero" stroke="none" stroke-width="1" stroke-linecap="butt" stroke-linejoin="miter" stroke-miterlimit="10" stroke-dasharray="" stroke-dashoffset="0" font-family="none" font-weight="none" font-size="none" text-anchor="none" style="mix-blend-mode: normal"><g transform="scale(8,8)"><path d="M26,7l-0.30078,-0.30078c-1.69922,-1.89844 -4.19922,-2.5 -4.19922,-2.5c-3,-0.89844 -7.69922,1.10156 -11.89844,5.19922c-3.5,3.30078 -5.60156,7.30078 -5.60156,10.30078c0,0.40234 0.10156,0.80078 0.10156,1.19922c0.19922,2 1.5,4.10156 2.59766,5.10156c1.40234,1.39844 3.19922,2.10156 5.19922,2.10156c3.30078,0 7.20312,-1.90234 10.80078,-5.30078c5.60156,-5.5 7,-12 3.30078,-15.80078zM10,21.69922c0,-1.30078 1.39844,-4 4.39844,-7c2.90234,-2.89844 5.90234,-3.69922 7.30078,-4c-0.69922,1.90234 -2.19922,4.19922 -4.39844,6.40234c-2.10156,2 -4.5,3.59766 -6.60156,4.39844c-0.19922,0.10156 -0.5,0.10156 -0.69922,0.19922zM11,10.80078c3.30078,-3.30078 6.80078,-4.90234 9,-4.90234c0.69922,0 1.30078,0.20313 1.69922,0.60156c0.40234,0.39844 0.60156,1.19922 0.5,2.10156c-1.19922,0.09766 -5.30078,0.79688 -9.19922,4.69922c-2.5,2.5 -5.10156,6.09766 -4.89844,8.59766c-0.60156,0 -1.20313,-0.19922 -1.5,-0.5c-0.20312,-0.19922 -0.40234,-0.5 -0.5,-0.89844c0,0 -0.10156,-0.5 -0.10156,-0.80078c0.10156,-2.5 2,-6 5,-8.89844zM21.30078,21.30078c-4.80078,4.80078 -10.30078,6.09766 -13.19922,3.30078c-0.20313,-0.20312 -0.40234,-0.40234 -0.60156,-0.70312c0.19922,0.10156 0.5,0.10156 0.80078,0.10156c0.89844,0 2,-0.19922 3.09766,-0.60156c2.40234,-0.89844 5,-2.59766 7.30078,-4.89844c3.5,-3.5 5.5,-7.5 5.5,-10.39844l0.10156,0.09766l0.30078,0.19922c2.79688,2.90234 1.39844,8.30078 -3.30078,12.90234z"></path></g></g></svg>